# xmcd
#
# Track frame offsets: 
#        150
#        14469
#        28773
#        42145
#        59087
#        71410
#        84501
#        99077
#        113681
#        127583
#        141387
#        153861
#        167395
#        179778
#
# Disc length: 2579 seconds
#
# Revision: 0
# Processed by: cddbd v1.5.2PL0 Copyright (c) Steve Scherf et al.
# Submitted via: ExactAudioCopy v1.1
#
DISCID=af0a110e
DTITLE=Various Artist - Sertanejo Pop Festival
DYEAR=2011
DGENRE=Sertanejo
TTITLE0=Luan Santana - Um Beijo (Ao Vivo)
TTITLE1=Jorge and Mateus - Seu Astral
TTITLE2=Fernando and Sorocaba - Tô Passando Mal (Tatatatá) (Ao Vivo)
TTITLE3=Michel Teló - Larga De Bobeira (Ao Vivo)
TTITLE4=Gusttavo Lima - Cor De Ouro (Ao Vivo)
TTITLE5=Maria Cecília and Rodolfo - Tchau, Tchau (Ao Vivo)
TTITLE6=Guilherme and Santiago - Que Dá Vontade Dá (Ao Vivo)
TTITLE7=Hugo Pena and Gabriel - Quatro Estações (Ao Vivo)
TTITLE8=Munhoz and Mariano - Sonho Bom (Ao Vivo)
TTITLE9=João Neto and Frederico - Meu Coração Pede Carona (Ao Vivo)
TTITLE10=Luan Santana - Palácios E Castelos (Ao Vivo)
TTITLE11=Fernando and Sorocaba - Teus Segredos (Ao Vivo)
TTITLE12=Michel Teló - Se Intrometeu (Ao Vivo)
TTITLE13=Maria Cecília and Rodolfo - Três Palavras (Ao Vivo)
EXTD=
EXTT0=
EXTT1=
EXTT2=
EXTT3=
EXTT4=
EXTT5=
EXTT6=
EXTT7=
EXTT8=
EXTT9=
EXTT10=
EXTT11=
EXTT12=
EXTT13=
PLAYORDER=
